<?xml version="1.0" encoding="UTF-8"?>
<svg id="Layer_1" data-name="Layer 1" xmlns="http://www.w3.org/2000/svg" viewBox="0 0 1270 1060">
  <defs>
    <style>
      .cls-1 {
        fill: #fff;
        stroke-width: 0px;
      }
    </style>
  </defs>
  <rect class="cls-1" x="29.99" y="77.81" width="123.64" height="109.9"/>
  <path class="cls-1" d="M998.82,449.51l220.43-221.41h-148.27l-256.01,237.23V22.5h-123.56v269.48h-106.52v70.18c-43.49-52.39-108.73-76.11-182.87-76.11-114.96,0-209.29,58.29-247.97,153.53v-215.33H30.5v527.83h123.56v-111.22c38.67,95.79,133.01,155.23,247.97,155.23,71.17,0,133.45-22.73,176.94-70.18v27.68c0,106.75-51.4,160.13-168.04,160.13-73.15,0-148.27-24.71-194.73-63.26l-55.35,92.92c60.3,49.42,158.15,75.12,257,75.12,179.55,0,278.87-82.1,284.41-262.56h112.71v-139.37l91.93-86.99,182.86,226.36h150.25l-241.19-306.43ZM420.81,691.32c-93.9,0-161.11-61.28-161.11-151.23s67.21-149.26,161.11-149.26,160.13,60.3,160.13,149.26-67.21,151.23-160.13,151.23Z"/>
</svg>